<svg xmlns="http://www.w3.org/2000/svg" viewBox="0 0 80 108" shape-rendering="crispEdges" role="img" aria-label="Relic card: a loaf of bread and a cup of water — Epicurus's simple, natural pleasures and tranquility (ataraxia)">
  <!-- card frame -->
  <rect width="80" height="108" fill="#050610"/>
  <rect x="2" y="2" width="76" height="104" fill="#46e07a"/>
  <rect x="4" y="4" width="72" height="100" fill="#1d2235"/>
  <!-- title bar + rank gem -->
  <rect x="7" y="7" width="66" height="12" fill="#262c44"/>
  <polygon points="40,8 45,13 40,18 35,13" fill="#46e07a"/>
  <!-- bottom plate + rarity pips -->
  <rect x="7" y="89" width="66" height="12" fill="#262c44"/>
  <rect x="32" y="93" width="4" height="4" fill="#46e07a"/>
  <rect x="38" y="93" width="4" height="4" fill="#46e07a"/>
  <rect x="44" y="93" width="4" height="4" fill="#46e07a"/>
  <!-- calm aura -->
  <rect x="22" y="32" width="3" height="3" fill="#46e07a"/>
  <rect x="40" y="28" width="3" height="3" fill="#46e07a"/>
  <rect x="56" y="32" width="3" height="3" fill="#46e07a"/>
  <!-- sprig (natural) -->
  <rect x="26" y="40" width="2" height="10" fill="#46e07a"/>
  <rect x="21" y="42" width="5" height="3" fill="#46e07a"/>
  <rect x="28" y="45" width="5" height="3" fill="#46e07a"/>
  <!-- bread loaf -->
  <rect x="14" y="49" width="26" height="6" fill="#eec295"/>
  <rect x="14" y="54" width="26" height="14" fill="#d9a066"/>
  <rect x="14" y="66" width="26" height="3" fill="#a86a37"/>
  <rect x="20" y="51" width="2" height="3" fill="#b07a3f"/>
  <rect x="26" y="51" width="2" height="3" fill="#b07a3f"/>
  <rect x="32" y="51" width="2" height="3" fill="#b07a3f"/>
  <!-- cup of water -->
  <rect x="46" y="50" width="20" height="3" fill="#e6e0cf"/>
  <rect x="48" y="53" width="16" height="15" fill="#c9c3ad"/>
  <rect x="50" y="55" width="12" height="6" fill="#4cc2ff"/>
  <rect x="47" y="66" width="18" height="3" fill="#8d876f"/>
  <rect x="64" y="56" width="4" height="8" fill="#c9c3ad"/>
  <rect x="65" y="58" width="2" height="4" fill="#1d2235"/>
</svg>
